<?xml version="1.0" encoding="utf-8"?>
<!-- Generator: Adobe Illustrator 25.4.1, SVG Export Plug-In . SVG Version: 6.00 Build 0)  -->
<svg version="1.1" id="Layer_1" xmlns="http://www.w3.org/2000/svg" xmlns:xlink="http://www.w3.org/1999/xlink" x="0px" y="0px"
	 viewBox="0 0 1080 1080" style="enable-background:new 0 0 1080 1080;" xml:space="preserve">
<style type="text/css">
	.st0{display:none;}
	.st1{fill:#D22482;}
	.st2{fill:#00A1D4;}
	.st3{fill:#43B483;}
</style>
<rect class="st0" width="1080" height="1080"/>
<g>
	<path class="st1" d="M958.42,559.2c-17.5-29.75-80.09-71.95-80.09-71.95c3.94,9.9,34.68,57.99,45.44,72.06
		c23.84,31.18,38.78,77.65,7.75,109.99c-19.4,20.22-49.07,24.85-65.02,25.8c-4.46,0.27-9.06,0.4-13.67,0.4
		c-71.98,0-160.42-32.71-255.75-94.61c-54.05-35.1-104.27-76.72-152.84-116.96c-23.77-19.69-48.34-40.06-73.18-59.52l-3.98-3.12
		l-20.64,22.31l4.69,3.68c24.52,19.21,48.92,39.43,72.52,58.99c49.25,40.81,100.18,83.02,155.75,119.1
		c46.71,30.33,92.08,54.15,134.83,70.78c49.52,19.26,96.05,29.03,138.32,29.03c5.37,0,10.73-0.16,15.93-0.47
		c35.7-2.15,66.31-14.73,86.18-35.44C985.52,657.1,984.75,603.97,958.42,559.2z"/>
	<path class="st2" d="M907.79,281.93c-58.23-128.39-287.64-149.84-512.39-47.92c-22.08,10.01-43.29,20.84-63.53,32.36
		c4.17-2,8.37-3.95,12.61-5.87c199.61-90.52,402.8-72.67,453.84,39.88c43.64,96.25-38.13,230.57-187.57,324.07
		c23.46,9.77,43.89,25.99,66.19,38.03C858.34,556.71,959.61,396.22,907.79,281.93z"/>
	<path class="st2" d="M702.15,315.07c-37.98-83.74-187.61-97.73-334.2-31.25c-14.4,6.53-28.23,13.59-41.44,21.11
		c2.72-1.3,5.46-2.57,8.22-3.83c130.19-59.04,262.72-47.4,296.01,26.01c28.46,62.78-24.87,150.38-122.34,211.37
		c15.3,6.37,28.63,16.95,43.17,24.8C669.9,494.29,735.95,389.61,702.15,315.07z"/>
	<path class="st2" d="M541.67,350.24c-22.9-50.49-113.11-58.92-201.49-18.84c-8.68,3.94-17.02,8.19-24.98,12.73
		c1.64-0.79,3.29-1.55,4.96-2.31c78.49-35.59,158.4-28.58,178.47,15.68c17.16,37.85-14.99,90.67-73.76,127.44
		c9.22,3.84,17.26,10.22,26.03,14.95C522.22,458.29,562.05,395.18,541.67,350.24z"/>
	
		<ellipse transform="matrix(0.9105 -0.4136 0.4136 0.9105 -146.4102 187.7287)" class="st3" cx="360.34" cy="431.99" rx="28.07" ry="20.41"/>
	<g>
		<path class="st3" d="M597.45,630.76c-22.81,13.83-47.13,26.7-72.78,38.33c-172.35,78.15-347.38,74.63-422.67-1.56
			c68.39,113.27,285.68,128.76,498.78,32.13c21.79-9.88,42.73-20.57,62.72-31.93C641.62,655.18,621.27,639.33,597.45,630.76z"/>
		<path class="st3" d="M701.81,614.53c9.57,17.81,7.58,41.18-3.1,58.69c-12.04,19.73-33.32,32.51-55.63,38.57
			c-26.67,7.25-54.59,5.87-81.9,4.4c-4.92-0.26-11.25-19.02-12.93-22.59c-2.11-4.5-4.27-8.98-6.51-13.42
			c-1.82-3.59-7.89-9.83-6.9-13.7c1.64-6.41,8.84-17.77,12.22-23.09c9.55-15.03,21.66-28.54,36.26-38.82
			c21.67-15.26,49.16-23,75.25-18.33c14.99,2.68,29.66,9.73,38.99,21.77C699.19,610.09,700.59,612.26,701.81,614.53z"/>
	</g>
	<g>
		<path class="st3" d="M498.87,544.28c-14.71,8.92-30.4,17.22-46.94,24.73c-111.17,50.41-224.07,48.14-272.63-1.01
			c44.12,73.06,184.27,83.06,321.73,20.72c14.06-6.37,27.56-13.27,40.45-20.6C527.37,560.03,514.24,549.8,498.87,544.28z"/>
		<path class="st3" d="M566.19,533.81c6.17,11.49,4.89,26.57-2,37.86c-7.77,12.73-21.49,20.97-35.88,24.88
			c-17.2,4.68-35.22,3.79-52.83,2.84c-3.18-0.17-7.26-12.27-8.34-14.57c-1.36-2.9-2.75-5.79-4.2-8.65
			c-1.17-2.32-5.09-6.34-4.45-8.83c1.06-4.14,5.7-11.46,7.88-14.89c6.16-9.69,13.97-18.41,23.39-25.04
			c13.98-9.84,31.71-14.84,48.54-11.82c9.67,1.73,19.13,6.28,25.15,14.04C564.5,530.94,565.4,532.35,566.19,533.81z"/>
	</g>
	<g>
		<path class="st3" d="M423.68,486.79c-9.15,5.55-18.92,10.72-29.21,15.39c-69.18,31.37-139.44,29.96-169.65-0.63
			c27.45,45.47,114.67,51.68,200.2,12.89c8.75-3.97,17.15-8.26,25.17-12.82C441.41,496.59,433.24,490.23,423.68,486.79z"/>
		<path class="st3" d="M465.57,480.28c3.84,7.15,3.04,16.53-1.24,23.56c-4.83,7.92-13.37,13.05-22.33,15.48
			c-10.7,2.91-21.91,2.36-32.87,1.77c-1.98-0.11-4.52-7.64-5.19-9.07c-0.85-1.81-1.71-3.6-2.61-5.39c-0.73-1.44-3.17-3.94-2.77-5.5
			c0.66-2.57,3.55-7.13,4.91-9.27c3.83-6.03,8.7-11.46,14.56-15.58c8.7-6.12,19.73-9.23,30.21-7.36c6.02,1.08,11.91,3.91,15.65,8.74
			C464.51,478.49,465.08,479.37,465.57,480.28z"/>
	</g>
	<g>
		<polygon class="st1" points="627.03,811.59 603.79,811.59 545.11,896.88 545.24,896.88 486.42,811.59 460.28,811.59 
			532.76,910.35 556.06,910.35 		"/>
		<path class="st3" d="M449.33,910.35h26.14l-72.49-98.76h-25.55l-70.97,98.76h23.24l16.22-23.57h87.15L449.33,910.35z
			 M355.2,873.31l33.21-48.26h2.11l33.28,48.26H355.2z"/>
		<polygon class="st2" points="693.66,860.04 693.66,857.6 786.08,811.59 750.96,811.59 672.33,853.44 672.33,811.59 649.89,811.59 
			649.89,910.35 672.33,910.35 672.33,866.65 757.03,910.35 796.64,910.35 		"/>
	</g>
</g>
</svg>
