<?xml version="1.0" encoding="utf-8"?>
<!-- Generator: Adobe Illustrator 25.4.1, SVG Export Plug-In . SVG Version: 6.00 Build 0)  -->
<svg version="1.1" id="HOrizonatla" xmlns="http://www.w3.org/2000/svg" xmlns:xlink="http://www.w3.org/1999/xlink" x="0px"
	 y="0px" viewBox="0 0 1920 1080" style="enable-background:new 0 0 1920 1080;" xml:space="preserve">
<style type="text/css">
	.st0{display:none;fill:#FFFFFF;}
	.st1{fill:#C23980;}
	.st2{fill:#D22482;}
	.st3{fill:#00A1D4;}
	.st4{fill:#43B483;}
</style>
<rect class="st0" width="1920" height="1080"/>
<g>
	<g>
		<path class="st1" d="M568.94,495.03l39.6,87.11h-12.01l-9.73-21.46h-35.6l-9.63,21.46h-11.92L568.94,495.03z M568.91,521.21
			l-13.42,29.92h26.98L568.91,521.21z"/>
		<path class="st1" d="M601.3,498.39h12.09l26.34,59.41l26.54-59.41h12.2l-38.88,86.58L601.3,498.39z"/>
		<path class="st1" d="M689.73,498.25h11.46v34.07l35.58-34.07h15.97l-40.54,38.93l40.81,44.96h-14.59l-37.23-40.92v40.92h-11.46
			V498.25z"/>
		<path class="st1" d="M796.2,498.25h51.29v11.46h-20.02v72.43h-11.33v-72.43H796.2V498.25z"/>
		<path class="st1" d="M902.73,557.18h-46.35c1.01,5.58,3.3,9.65,6.88,12.21c3.58,2.57,7.47,3.85,11.69,3.85
			c6.5,0,11.94-2.7,16.33-8.1l8.36,6.32c-6.28,8.12-14.68,12.18-25.22,12.18c-8.08,0-14.84-2.77-20.28-8.3
			c-5.44-5.53-8.16-12.4-8.16-20.61c0-7.68,2.75-14.34,8.26-19.98c5.51-5.64,12.23-8.46,20.18-8.46c7.81,0,14.51,2.86,20.08,8.59
			C900.08,540.62,902.82,548.05,902.73,557.18z M857.56,548.03h33.19c-3.69-7.46-9.13-11.19-16.33-11.19
			C866.56,536.84,860.94,540.57,857.56,548.03z"/>
		<path class="st1" d="M956.66,565.55v13.1c-5.84,3.34-11.5,5-16.99,5c-7.51,0-14.08-2.82-19.72-8.46
			c-5.64-5.64-8.46-12.17-8.46-19.59c0-8.43,2.81-15.42,8.43-20.97c5.62-5.55,12.66-8.33,21.14-8.33c5.05,0,10.25,1.32,15.6,3.95
			v12.77c-5.75-3.69-11.19-5.53-16.33-5.53c-4.74,0-8.89,1.67-12.44,5c-3.56,3.34-5.33,7.24-5.33,11.72c0,5.05,1.67,9.29,5,12.74
			c3.34,3.45,7.42,5.17,12.25,5.17C944.72,572.13,950.34,569.94,956.66,565.55z"/>
		<path class="st1" d="M970.68,496.67h11.46v40.03c3.16-3.64,6.11-6.29,8.86-7.93c2.74-1.65,6.09-2.47,10.04-2.47
			c4.61,0,8.59,1.77,11.95,5.3c3.36,3.53,5.04,7.76,5.04,12.67v37.86h-11.46v-34.63c0-3.42-0.87-6.17-2.6-8.23
			c-1.73-2.06-4.03-3.09-6.88-3.09c-4.13,0-7.65,1.56-10.57,4.67c-2.92,3.12-4.38,6.89-4.38,11.33v29.96h-11.46V496.67z"/>
		<path class="st1" d="M1121.79,507.6l-9.28,7.44c-2.45-2.55-4.68-4.45-6.67-5.7c-1.99-1.25-4.87-1.88-8.64-1.88
			c-4.12,0-7.46,0.93-10.02,2.79c-2.56,1.86-3.84,4.25-3.84,7.19c0,2.54,1.12,4.78,3.36,6.73c2.24,1.95,6.05,4.08,11.44,6.39
			c5.39,2.32,9.58,4.47,12.59,6.47s5.47,4.2,7.39,6.61c1.93,2.41,3.36,4.96,4.3,7.63c0.94,2.68,1.41,5.51,1.41,8.49
			c0,6.97-2.53,12.92-7.6,17.83c-5.07,4.91-11.2,7.37-18.4,7.37c-7.02,0-13.22-1.92-18.6-5.76c-5.38-3.84-9.51-9.6-12.41-17.28
			l11.46-3.23c4.17,9.44,10.56,14.16,19.16,14.16c4.17,0,7.64-1.25,10.4-3.74c2.77-2.49,4.15-5.64,4.15-9.45
			c0-2.28-0.73-4.56-2.17-6.86c-1.45-2.3-3.25-4.19-5.4-5.68c-2.15-1.49-5.58-3.2-10.27-5.12c-4.7-1.93-8.31-3.69-10.85-5.29
			s-4.72-3.51-6.57-5.72c-1.85-2.21-3.2-4.42-4.06-6.61c-0.86-2.19-1.29-4.54-1.29-7.04c0-6.01,2.41-11.13,7.24-15.36
			s10.69-6.35,17.58-6.35c4.57,0,9.2,0.99,13.89,2.96C1114.77,500.56,1118.68,503.57,1121.79,507.6z"/>
		<path class="st1" d="M1133.84,554.75c0-7.42,2.93-14.01,8.79-19.79c5.86-5.77,12.59-8.66,20.18-8.66c7.81,0,14.64,2.84,20.48,8.53
			c5.84,5.69,8.76,12.32,8.76,19.92c0,7.64-2.86,14.36-8.59,20.18c-5.73,5.82-12.35,8.73-19.85,8.73c-8.03,0-15-2.88-20.91-8.63
			C1136.8,569.28,1133.84,562.52,1133.84,554.75z M1180.99,554.78c0-4.62-1.76-8.63-5.27-12.04c-3.51-3.41-7.68-5.11-12.51-5.11
			c-4.96,0-9.23,1.73-12.81,5.18c-3.58,3.45-5.37,7.58-5.37,12.37c0,4.57,1.81,8.58,5.43,12.01c3.62,3.43,7.87,5.15,12.74,5.15
			c4.74,0,8.89-1.76,12.44-5.28C1179.21,563.53,1180.99,559.44,1180.99,554.78z"/>
		<path class="st1" d="M1205.88,496.67h11.46v85.46h-11.46V496.67z"/>
		<path class="st1" d="M1231.88,527.82h11.46v30.62c0,9.44,4.15,14.16,12.45,14.16c3.69,0,6.61-1.26,8.76-3.79
			c2.15-2.52,3.23-5.98,3.23-10.37v-30.62h11.33v32.46c0,6.8-2.22,12.4-6.65,16.79c-4.43,4.39-10.1,6.58-16.99,6.58
			c-7.02,0-12.71-2.2-17.05-6.58s-6.52-10.12-6.52-17.19V527.82z"/>
		<path class="st1" d="M1296.61,512.02h11.46v15.8h11.32v10.47h-11.32v43.85h-11.46v-43.85h-9.02v-10.6h9.02V512.02z"/>
		<path class="st1" d="M1327.36,509.97c0-2.37,0.88-4.42,2.63-6.16c1.75-1.73,3.84-2.6,6.25-2.6c2.37,0,4.42,0.87,6.16,2.6
			c1.73,1.73,2.6,3.79,2.6,6.16c0,2.42-0.87,4.48-2.6,6.19c-1.73,1.71-3.79,2.57-6.16,2.57c-2.41,0-4.5-0.86-6.25-2.57
			C1328.23,514.45,1327.36,512.39,1327.36,509.97z M1330.58,527.82h11.32v54.32h-11.32V527.82z"/>
		<path class="st1" d="M1356,554.75c0-7.42,2.93-14.01,8.79-19.79c5.86-5.77,12.59-8.66,20.18-8.66c7.81,0,14.64,2.84,20.48,8.53
			c5.84,5.69,8.76,12.32,8.76,19.92c0,7.64-2.86,14.36-8.59,20.18c-5.73,5.82-12.35,8.73-19.85,8.73c-8.03,0-15-2.88-20.91-8.63
			C1358.95,569.28,1356,562.52,1356,554.75z M1403.14,554.78c0-4.62-1.76-8.63-5.27-12.04c-3.51-3.41-7.68-5.11-12.51-5.11
			c-4.96,0-9.23,1.73-12.81,5.18c-3.58,3.45-5.37,7.58-5.37,12.37c0,4.57,1.81,8.58,5.43,12.01c3.62,3.43,7.87,5.15,12.74,5.15
			c4.74,0,8.89-1.76,12.44-5.28C1401.36,563.53,1403.14,559.44,1403.14,554.78z"/>
		<path class="st1" d="M1424.34,582.14v-54.32h11.19v9.02c3.29-3.64,6.28-6.31,8.95-8c2.68-1.69,5.66-2.53,8.95-2.53
			c4.92,0,9.12,1.62,12.61,4.87c3.49,3.25,5.23,7.16,5.23,11.72v39.24h-11.46v-35.88c0-2.94-0.95-5.38-2.86-7.31
			c-1.91-1.93-4.34-2.9-7.28-2.9c-3.82,0-7.11,1.61-9.88,4.84s-4.15,7.12-4.15,11.69v29.56H1424.34z"/>
		<path class="st1" d="M1518.3,534.27l-7.64,6.72c-1.98-1.4-3.69-2.47-5.14-3.19c-1.45-0.73-3.16-1.09-5.14-1.09
			c-4.65,0-6.98,1.71-6.98,5.14c0,2.46,2.95,4.85,8.86,7.16c5.9,2.32,10.15,4.85,12.74,7.62c2.59,2.76,3.88,6.09,3.88,10
			c0,4.56-1.87,8.54-5.6,11.94c-3.73,3.4-8.12,5.1-13.17,5.1c-7.68,0-13.98-3.56-18.9-10.67l9.02-4.35
			c3.16,3.07,6.45,4.61,9.88,4.61c2.37,0,4.44-0.65,6.22-1.94c1.78-1.29,2.67-2.8,2.67-4.51c0-3.03-3.12-5.75-9.35-8.17
			c-6.23-2.42-10.55-4.87-12.94-7.35c-2.39-2.48-3.59-5.54-3.59-9.18c0-4.52,1.7-8.28,5.1-11.28c3.4-3.01,7.67-4.51,12.81-4.51
			C1506.19,526.3,1511.94,528.96,1518.3,534.27z"/>
		<path class="st1" d="M1568.54,498.25h11.33v83.88h-11.33V498.25z"/>
		<path class="st1" d="M1595.07,582.14v-54.32h11.19v9.02c3.29-3.64,6.28-6.31,8.95-8c2.68-1.69,5.66-2.53,8.95-2.53
			c4.92,0,9.12,1.62,12.61,4.87c3.49,3.25,5.23,7.16,5.23,11.72v39.24h-11.46v-35.88c0-2.94-0.95-5.38-2.86-7.31
			c-1.91-1.93-4.34-2.9-7.28-2.9c-3.82,0-7.11,1.61-9.88,4.84c-2.77,3.23-4.15,7.12-4.15,11.69v29.56H1595.07z"/>
		<path class="st1" d="M1697,565.55v13.1c-5.84,3.34-11.5,5-16.99,5c-7.51,0-14.08-2.82-19.72-8.46
			c-5.64-5.64-8.46-12.17-8.46-19.59c0-8.43,2.81-15.42,8.43-20.97c5.62-5.55,12.66-8.33,21.14-8.33c5.05,0,10.25,1.32,15.6,3.95
			v12.77c-5.75-3.69-11.19-5.53-16.33-5.53c-4.74,0-8.89,1.67-12.44,5c-3.56,3.34-5.33,7.24-5.33,11.72c0,5.05,1.67,9.29,5,12.74
			c3.33,3.45,7.42,5.17,12.25,5.17C1685.06,572.13,1690.68,569.94,1697,565.55z"/>
	</g>
	<g>
		<path class="st2" d="M476.82,545.69c-5.19-8.82-23.74-21.32-23.74-21.32c1.17,2.94,10.28,17.19,13.47,21.36
			c7.07,9.24,11.49,23.01,2.3,32.6c-5.75,5.99-14.54,7.36-19.27,7.65c-1.32,0.08-2.68,0.12-4.05,0.12c-21.33,0-47.54-9.7-75.8-28.04
			c-16.02-10.4-30.9-22.74-45.3-34.66c-7.04-5.84-14.33-11.87-21.69-17.64l-1.18-0.92l-6.12,6.61l1.39,1.09
			c7.27,5.69,14.5,11.69,21.49,17.48c14.6,12.1,29.69,24.6,46.16,35.3c13.85,8.99,27.29,16.05,39.96,20.98
			c14.68,5.71,28.47,8.6,40.99,8.6c1.59,0,3.18-0.05,4.72-0.14c10.58-0.64,19.65-4.37,25.54-10.5
			C484.85,574.71,484.63,558.96,476.82,545.69z"/>
		<path class="st3" d="M461.82,463.52c-17.26-38.05-85.25-44.41-151.86-14.2c-6.54,2.97-12.83,6.18-18.83,9.59
			c1.24-0.59,2.48-1.17,3.74-1.74c59.16-26.83,119.38-21.54,134.51,11.82c12.93,28.53-11.3,68.33-55.59,96.05
			c6.95,2.9,13.01,7.7,19.62,11.27C447.16,544.95,477.18,497.39,461.82,463.52z"/>
		<path class="st3" d="M400.87,473.34c-11.26-24.82-55.6-28.97-99.05-9.26c-4.27,1.93-8.37,4.03-12.28,6.26
			c0.81-0.39,1.62-0.76,2.44-1.14c38.59-17.5,77.86-14.05,87.73,7.71c8.44,18.61-7.37,44.57-36.26,62.65
			c4.53,1.89,8.48,5.02,12.79,7.35C391.31,526.45,410.89,495.43,400.87,473.34z"/>
		<path class="st3" d="M353.31,483.76c-6.79-14.96-33.52-17.46-59.72-5.58c-2.57,1.17-5.04,2.43-7.4,3.77
			c0.49-0.23,0.98-0.46,1.47-0.68c23.26-10.55,46.94-8.47,52.89,4.65c5.09,11.22-4.44,26.87-21.86,37.77
			c2.73,1.14,5.11,3.03,7.71,4.43C347.54,515.78,359.35,497.08,353.31,483.76z"/>
		
			<ellipse transform="matrix(0.9105 -0.4136 0.4136 0.9105 -183.2873 169.3963)" class="st4" cx="299.57" cy="507.99" rx="8.32" ry="6.05"/>
		<g>
			<path class="st4" d="M369.84,566.9c-6.76,4.1-13.97,7.91-21.57,11.36c-51.08,23.16-102.96,22.12-125.27-0.46
				c20.27,33.57,84.67,38.16,147.83,9.52c6.46-2.93,12.66-6.1,18.59-9.46C382.93,574.14,376.9,569.44,369.84,566.9z"/>
			<path class="st4" d="M400.77,562.09c2.84,5.28,2.25,12.21-0.92,17.39c-3.57,5.85-9.88,9.64-16.49,11.43
				c-7.9,2.15-16.18,1.74-24.27,1.3c-1.46-0.08-3.33-5.64-3.83-6.69c-0.63-1.33-1.26-2.66-1.93-3.98c-0.54-1.06-2.34-2.91-2.04-4.06
				c0.49-1.9,2.62-5.27,3.62-6.84c2.83-4.45,6.42-8.46,10.75-11.5c6.42-4.52,14.57-6.82,22.3-5.43c4.44,0.8,8.79,2.88,11.56,6.45
				C399.99,560.77,400.41,561.42,400.77,562.09z"/>
		</g>
		<g>
			<path class="st4" d="M340.62,541.27c-4.36,2.64-9.01,5.1-13.91,7.33c-32.95,14.94-66.41,14.27-80.8-0.3
				c13.07,21.65,54.61,24.62,95.35,6.14c4.17-1.89,8.17-3.93,11.99-6.11C349.07,545.94,345.18,542.91,340.62,541.27z"/>
			<path class="st4" d="M360.57,538.17c1.83,3.4,1.45,7.87-0.59,11.22c-2.3,3.77-6.37,6.22-10.63,7.37
				c-5.1,1.39-10.44,1.12-15.66,0.84c-0.94-0.05-2.15-3.64-2.47-4.32c-0.4-0.86-0.82-1.72-1.24-2.56c-0.35-0.69-1.51-1.88-1.32-2.62
				c0.31-1.23,1.69-3.4,2.34-4.41c1.83-2.87,4.14-5.46,6.93-7.42c4.14-2.92,9.4-4.4,14.39-3.5c2.87,0.51,5.67,1.86,7.45,4.16
				C360.07,537.32,360.34,537.73,360.57,538.17z"/>
		</g>
		<g>
			<path class="st4" d="M318.34,524.23c-2.71,1.65-5.61,3.18-8.66,4.56c-20.5,9.3-41.33,8.88-50.28-0.19
				c8.14,13.47,33.99,15.32,59.34,3.82c2.59-1.18,5.08-2.45,7.46-3.8C323.59,527.13,321.17,525.25,318.34,524.23z"/>
			<path class="st4" d="M330.75,522.3c1.14,2.12,0.9,4.9-0.37,6.98c-1.43,2.35-3.96,3.87-6.62,4.59c-3.17,0.86-6.49,0.7-9.74,0.52
				c-0.59-0.03-1.34-2.26-1.54-2.69c-0.25-0.54-0.51-1.07-0.77-1.6c-0.22-0.43-0.94-1.17-0.82-1.63c0.2-0.76,1.05-2.11,1.45-2.75
				c1.14-1.79,2.58-3.4,4.31-4.62c2.58-1.81,5.85-2.74,8.95-2.18c1.78,0.32,3.53,1.16,4.64,2.59
				C330.44,521.77,330.61,522.03,330.75,522.3z"/>
		</g>
		<g>
			<polygon class="st2" points="378.61,620.49 371.72,620.49 354.33,645.77 354.36,645.77 336.93,620.49 329.18,620.49 
				350.67,649.76 357.57,649.76 			"/>
			<path class="st4" d="M325.94,649.76h7.75l-21.48-29.27h-7.57l-21.03,29.27h6.89l4.81-6.98h25.83L325.94,649.76z M298.04,638.79
				l9.84-14.3h0.63l9.86,14.3H298.04z"/>
			<polygon class="st3" points="398.35,634.85 398.35,634.13 425.74,620.49 415.34,620.49 392.03,632.9 392.03,620.49 
				385.38,620.49 385.38,649.76 392.03,649.76 392.03,636.81 417.14,649.76 428.87,649.76 			"/>
		</g>
	</g>
</g>
<g>
	<path class="st1" d="M1525.34,574.69l10.66,4.17l-11.7,25.39l-7.69-3.02L1525.34,574.69z"/>
</g>
</svg>
